<svg version="1.1" xmlns="http://www.w3.org/2000/svg" xmlns:xlink="http://www.w3.org/1999/xlink" x="0px" y="0px" viewBox="0 0 265.3 36" xml:space="preserve">
    <g>
        <polygon fill="#0887d4" points="153.7,9.8 133.2,35 126.2,35 141.2,16.4 141.2,5.1 147.2,5.1 147.2,9.2 153.7,1.2 181.2,35 174.1,35"/>
        <path fill="#0887d4" d="M28.6,35.1h-5.4l-1.4-9.2c-0.3-1.8-0.5-3.5-0.7-5.2c-0.4,1.7-0.8,3.3-1.4,5.3l-2.8,9.1h-5l-2.7-8.4 c-0.6-1.9-1.2-4.1-1.5-6.1c-0.2,2.1-0.5,3.8-0.7,5.7l-1,8.8H0.8l3.6-22.4h5.9l3.1,9.8c0.5,1.6,0.9,3.1,1.2,4.9 c0.4-1.8,0.8-3.2,1.3-4.9l3.2-9.8H25L28.6,35.1L28.6,35.1z"/>
        <path fill="#0887d4" d="M48,26.3c0,6.3-3.5,9.2-9.5,9.2c-7.1,0-8.9-3.8-8.9-8.3V12.7h5.2v14.2c0,2.6,0.8,4.3,4,4.3c2.9,0,4-1.2,4-4.6 V12.7H48V26.3L48,26.3z"/>
        <path fill="#0887d4" d="M63.9,27.9c0,4.3-3.5,7.6-9.2,7.6c-1.6,0-3.1-0.2-4.6-0.5l0.3-4.8c1.3,0.5,3.1,0.8,4.7,0.8 c1.9,0,3.2-0.8,3.2-2.4c0-3.8-8.9-1.9-8.9-9.3c0-4.2,3.3-7,8.9-7c1.2,0,2.7,0.1,4.1,0.4l-0.3,4.5c-1.3-0.4-2.7-0.6-4-0.6 c-2.2,0-3.1,0.9-3.1,2.2C55,22.2,63.9,20.9,63.9,27.9L63.9,27.9z"/>
        <polygon fill="#0887d4" points="79.9,17.1 74.6,17.1 74.6,35.1 69.4,35.1 69.4,17.1 64.1,17.1 64.1,12.7 79.9,12.7"/>
        <polygon fill="#0887d4" points="94,35.1 81.4,35.1 81.4,12.7 94,12.7 94,17 86.6,17 86.6,21.5 93.6,21.5 93.6,25.7 86.6,25.7 86.6,30.6 94,30.6"/>
        <path fill="#0887d4" d="M113.5,35.1h-6.3l-5.3-8.8l-0.2,8.8h-5.2V12.7c1.9-0.1,4.3-0.2,7-0.2c5.3,0,8.5,1.9,8.5,6.6c0,3-2,5.5-4.9,6.2 l1.7,2.5L113.5,35.1L113.5,35.1z M106.6,19.6c0-1.8-1-2.8-3.4-2.8c-0.5,0-1.1,0-1.4,0.1v5.7c0.3,0,0.8,0.1,1.3,0.1 C105.2,22.6,106.6,21.5,106.6,19.6L106.6,19.6z"/>
        <polygon fill="#0887d4" points="128.4,30.6 128.4,25.7 120.2,25.7 120.2,35.1 115.1,35.1 115.1,12.7 120.2,12.7 120.2,21.3 128.4,21.3 128.4,12.7 133.6,12.7 133.6,24.3"/>
        <path fill="#0887d4" d="M192.4,26.3c0,6.3-3.5,9.2-9.5,9.2L174,24.6V12.7h5.2v14.2c0,2.6,0.8,4.3,4,4.3c2.9,0,4-1.2,4-4.6V12.7h5.1 L192.4,26.3L192.4,26.3z"/>
        <path fill="#0887d4" d="M208.6,27.9c0,4.3-3.5,7.6-9.2,7.6c-1.6,0-3.1-0.2-4.6-0.5l0.3-4.8c1.3,0.5,3.1,0.8,4.7,0.8 c1.9,0,3.2-0.8,3.2-2.4c0-3.8-8.9-1.9-8.9-9.3c0-4.2,3.3-7,8.9-7c1.2,0,2.7,0.1,4.1,0.4l-0.3,4.5c-1.3-0.4-2.7-0.6-4-0.6 c-2.2,0-3.1,0.9-3.1,2.2C199.7,22.2,208.6,20.9,208.6,27.9L208.6,27.9z"/>
        <path fill="#0887d4" d="M210.8,32.1c-0.9,0-1.6,0.7-1.6,1.6c0,0.9,0.7,1.6,1.6,1.6c0.9,0,1.6-0.7,1.6-1.6 C212.4,32.8,211.7,32.1,210.8,32.1L210.8,32.1z"/>
        <path fill="#0887d4" d="M232.1,35.1V12.7H230v6c0,4.3,0.1,10.9,0.2,14.1c-0.9-1.6-1.8-3.1-2.8-4.7l-9.8-15.4h-2.9v22.4h2.1v-6.6 c0-4.2-0.1-10.9-0.2-13.6c0.7,1.5,1.6,2.9,2.6,4.5l9.9,15.6L232.1,35.1L232.1,35.1z"/>
        <polygon fill="#0887d4" points="246.2,35.1 246.2,33.3 237.2,33.3 237.2,24.4 245.7,24.4 245.7,22.7 237.2,22.7 237.2,14.4 246.2,14.4 246.2,12.7 235.1,12.7 235.1,35.1"/>
        <polygon fill="#0887d4" points="264.7,14.4 264.7,12.7 248.7,12.7 248.7,14.4 255.7,14.4 255.7,35.1 257.8,35.1 257.8,14.4"/>
    </g>
</svg>